<svg width="264" height="275" viewBox="0 0 264 275" fill="none" xmlns="http://www.w3.org/2000/svg">
<path d="M53 183.5C63.1536 201.074 79 228.5 79 228.5M53 183.5L40 206L27 228.5M53 183.5V213.5M53 183.5H1M53 183.5L27 138.5M53 183.5H79H105M53 183.5L66 161L79 138.5M53 183.5L79 168.5M53 183.5L27 168.5M79 228.5H53H27M79 228.5L105 183.5M79 228.5L53 213.5M27 228.5L53 213.5M27 228.5L1 183.5M105 183.5L79 138.5M105 183.5L79 168.5M1 183.5L27 138.5M1 183.5L27 168.5M27 138.5H79M27 138.5V168.5M79 138.5V168.5M80 229.5L106 184.5M80 229.5H132M80 229.5L93 252L106 274.5M80 229.5L106 244.5M106 184.5L132 229.5M106 184.5H132H158M106 184.5L132 199.5M158 184.5L184 229.5M158 184.5L145 207L132 229.5M158 184.5L132 199.5M132 229.5H184M132 229.5L145 252L158 274.5M132 229.5V199.5M132 229.5L119 252L106 274.5M132 229.5L106 244.5M132 229.5L158 244.5M184 229.5L158 274.5M184 229.5L158 244.5M106 274.5H158M106 274.5V244.5M158 274.5V244.5M27 137H79M27 137L1 92M27 137L53 92M27 137V107M79 137L53 92M79 137L92 114.5L105 92M79 137V107M1 92H53M1 92L27 47M1 92L27 107M53 92L79 47M53 92H79H105M53 92L79 107M53 92L40 69.5L27 47M53 92V62M53 92L27 107M105 92L79 47M105 92L79 107M27 47H53H79M27 47L53 62M79 47L53 62M159 183.5L185 228.5M159 183.5H211M159 183.5L185 138.5M159 183.5L185 168.5M185 228.5L211 183.5M185 228.5H237M185 228.5L211 213.5M211 183.5L185 138.5M211 183.5L185 168.5M211 183.5L237 138.5M211 183.5L237 228.5M211 183.5V213.5M211 183.5H263M211 183.5L237 168.5M185 138.5V168.5M185 138.5H237M237 138.5L263 183.5M237 138.5V168.5M237 228.5L211 213.5M237 228.5L263 183.5M263 183.5L237 168.5M185 137H237M185 137L159 92M185 137L211 92M185 137V107M237 137L263 92M237 137L211 92M237 137V107M263 92H211M263 92L237 107M263 92L237 47M211 92H159M211 92L237 107M211 92L185 107M211 92L237 47M211 92L185 47M211 92V62M159 92L185 107M159 92L185 47M185 47H237M185 47L211 62M237 47L211 62M158 91L184 46M158 91H132H106M158 91L145 68.5L132 46M158 91L132 76M184 46H132M184 46L158 1M184 46L158 31M132 46L106 91M132 46V76M132 46L106 1M132 46H106H80M132 46L106 31M132 46L158 1M132 46L158 31M106 91L80 46M106 91L132 76M80 46L93 23.5L106 1M80 46L106 31M106 1V31M106 1H158M158 1V31" stroke="#D7D6D6"/>
</svg>
