<svg width="132" height="117" viewBox="0 0 132 117" fill="none" xmlns="http://www.w3.org/2000/svg">
<path d="M2 2L18.5 4L24.125 20.5M41 70C41 70 37 75.5 34 80.5C31.9983 83.8361 34 90 37 90C65 90 114 90 114 90M41 70H63.5M41 70L35.5 53.8667M24.125 20.5H46.8125M24.125 20.5L29.8125 37.1833M91.5 20.5H129.5L124.276 37.1833M91.5 20.5L108 70M91.5 20.5H69.5M108 70H114L119.052 53.8667M108 70H86M69.5 20.5L86 70M69.5 20.5H46.8125M86 70H63.5M46.8125 20.5L63.5 70M35.5 53.8667H119.052M35.5 53.8667L29.8125 37.1833M119.052 53.8667L124.276 37.1833M29.8125 37.1833H124.276M44 100C39.9959 100.138 36.8619 103.496 37 107.5C37.1332 111.364 40.4218 114.1 44 114.5C47.9817 114.945 51.3619 111.504 51.5 107.5C51.6427 103.36 48.1397 99.8573 44 100ZM105 100C100.639 99.2376 96.3493 103.076 96.5 107.5C96.6464 111.798 100.764 115.241 105 114.5C108.547 113.879 110.878 111.098 111 107.5C111.127 103.751 108.695 100.646 105 100Z" stroke="white" stroke-width="4" stroke-linecap="round" stroke-linejoin="round"/>
</svg>
