<svg width="120" height="136" viewBox="0 0 120 136" fill="none" xmlns="http://www.w3.org/2000/svg">
<path d="M84.2667 15.9375C84.2667 15.9375 81.8667 0 71.4667 0C71.4667 0 56.5334 0 48.5334 0C38.1334 0 35.7334 15.9375 35.7334 15.9375H44.2667C44.2667 15.9375 45.3334 7.96875 49.0667 7.96875H70.9333C74.1333 7.96875 76 15.9375 76 15.9375H84.2667Z" fill="white"/>
<path d="M2.11402e-06 26.5624C-3.4986e-06 30.614 4.063e-06 32.9374 2.11402e-06 35.8593C1.65037e-07 38.7812 1.71069 39.8437 3.73327 39.8437C6.66661 39.8437 112.8 39.8437 116.267 39.8437C118.4 39.8437 120 37.9843 120 36.3906C120 32.1406 120 30.2812 120 25.7656C120 23.0115 115.733 15.9375 109.067 15.9375C100 15.9375 84.2667 15.9375 84.2667 15.9375H76H44.2667H35.7334C35.7334 15.9375 20.5333 15.9375 10.6666 15.9375C3.4666 16.7343 6.52971e-06 23.3749 2.11402e-06 26.5624Z" fill="white"/>
<path fill-rule="evenodd" clip-rule="evenodd" d="M9.06668 48.3436H110.933C110.933 48.3436 106.4 104.656 104.462 127.5C102.4 132.547 98.4 135.734 93.8667 136H25.8667C20.8 135.734 15.5478 130.687 15.2 125.375C14.4 113.156 9.06668 48.3436 9.06668 48.3436ZM60.0001 119.797C56.0001 119.797 56.0001 116.875 56.0001 116.875V59.5C56.0001 59.5 56.0001 56.5781 60.0001 56.5781C64.0001 56.5781 64.0001 59.5 64.0001 59.5V116.875C64.0001 116.875 64.0001 119.797 60.0001 119.797ZM32 116.875C32 116.875 32.0001 119.797 36.0001 119.797C40.0001 119.797 40.0001 116.875 40.0001 116.875V59.5C40.0001 59.5 40.0001 56.5781 36.0001 56.5781C32.0001 56.5781 32 59.5 32 59.5V116.875ZM84 119.797C80 119.797 80 116.875 80 116.875V59.5C80 59.5 80 56.5781 84 56.5781C88 56.5781 88 59.5 88 59.5V116.875C88 116.875 88 119.797 84 119.797Z" fill="white"/>
</svg>
